<svg width="67" height="18" viewBox="0 0 67 18" fill="none" xmlns="http://www.w3.org/2000/svg">
<path d="M15.4648 17H11.668V10.1562H4.70703V17H0.921875V0.195312H4.70703V6.89844H11.668V0.195312H15.4648V17ZM24.6758 17.293C22.6758 17.293 21.1016 16.7344 19.9531 15.6172C18.8125 14.4922 18.2422 12.9688 18.2422 11.0469C18.2422 9.0625 18.8359 7.51172 20.0234 6.39453C21.2109 5.26953 22.8164 4.70703 24.8398 4.70703C26.832 4.70703 28.3945 5.26953 29.5273 6.39453C30.6602 7.51172 31.2266 8.99219 31.2266 10.8359C31.2266 12.8281 30.6406 14.4023 29.4688 15.5586C28.3047 16.7148 26.707 17.293 24.6758 17.293ZM24.7695 7.54297C23.8945 7.54297 23.2148 7.84375 22.7305 8.44531C22.2461 9.04688 22.0039 9.89844 22.0039 11C22.0039 13.3047 22.9336 14.457 24.793 14.457C26.5664 14.457 27.4531 13.2734 27.4531 10.9062C27.4531 8.66406 26.5586 7.54297 24.7695 7.54297ZM52.6836 17H48.9922V10.1562C48.9922 8.41406 48.3516 7.54297 47.0703 7.54297C46.4609 7.54297 45.9648 7.80469 45.582 8.32812C45.1992 8.85156 45.0078 9.50391 45.0078 10.2852V17H41.3047V10.0859C41.3047 8.39062 40.6758 7.54297 39.418 7.54297C38.7852 7.54297 38.2773 7.79297 37.8945 8.29297C37.5195 8.79297 37.332 9.47266 37.332 10.332V17H33.6289V5H37.332V6.875H37.3789C37.7617 6.23438 38.2969 5.71484 38.9844 5.31641C39.6797 4.91016 40.4375 4.70703 41.2578 4.70703C42.9531 4.70703 44.1133 5.45312 44.7383 6.94531C45.6523 5.45312 46.9961 4.70703 48.7695 4.70703C51.3789 4.70703 52.6836 6.31641 52.6836 9.53516V17ZM66.3945 12.0547H58.5664C58.6914 13.7969 59.7891 14.668 61.8594 14.668C63.1797 14.668 64.3398 14.3555 65.3398 13.7305V16.4023C64.2305 16.9961 62.7891 17.293 61.0156 17.293C59.0781 17.293 57.5742 16.7578 56.5039 15.6875C55.4336 14.6094 54.8984 13.1094 54.8984 11.1875C54.8984 9.19531 55.4766 7.61719 56.6328 6.45312C57.7891 5.28906 59.2109 4.70703 60.8984 4.70703C62.6484 4.70703 64 5.22656 64.9531 6.26562C65.9141 7.30469 66.3945 8.71484 66.3945 10.4961V12.0547ZM62.9609 9.78125C62.9609 8.0625 62.2656 7.20312 60.875 7.20312C60.2812 7.20312 59.7656 7.44922 59.3281 7.94141C58.8984 8.43359 58.6367 9.04688 58.543 9.78125H62.9609Z" fill="black"/>
</svg>
